<svg width="80" height="80" viewBox="0 0 80 80" fill="none" xmlns="http://www.w3.org/2000/svg">
<path d="M79.4545 48.7121C79.4545 49.3821 79.4545 50.0521 79.4545 50.7321C79.1645 52.1521 78.7845 53.5421 77.8145 54.6821C77.5045 55.0521 77.5045 55.3321 77.7145 55.7721C78.8345 58.1121 78.6445 60.4021 76.9445 62.3521C76.2145 63.1821 76.0345 63.9621 76.0245 64.9621C76.0045 66.8221 76.1145 68.722 75.7445 70.512C74.6645 75.692 70.3745 79.0521 64.9445 79.0621C48.1345 79.1021 31.3345 79.1021 14.5345 79.0621C8.05452 79.0421 3.43452 74.3121 3.41452 67.8521C3.41452 66.3021 3.43454 64.752 3.40454 63.192C3.39454 62.862 3.28454 62.4821 3.09454 62.2121C1.74454 60.3121 1.48451 58.2921 2.31451 56.1221C2.38451 55.9421 2.42451 55.612 2.31451 55.512C1.06451 54.272 0.424526 52.7221 0.0145264 51.0421C0.0145264 50.2621 0.0145264 49.4921 0.0145264 48.7121C0.0545264 48.6221 0.0945325 48.5321 0.114532 48.4321C0.644532 45.5821 2.24453 43.5621 4.89453 42.3721C5.08453 42.2921 5.24452 41.9521 5.25452 41.7221C5.29452 40.6921 5.24452 39.6521 5.28452 38.6221C5.30452 38.1721 5.12452 37.9421 4.75452 37.702C2.09452 35.982 1.16452 32.9721 2.32452 30.0421C2.43452 29.7721 2.42451 29.3821 2.31451 29.1121C1.87451 28.1321 1.71452 27.1121 1.91452 26.0821C2.48452 23.1721 3.51452 20.4221 5.03452 17.8721C8.70452 11.7321 14.0445 7.4821 20.4645 4.5621C28.1345 1.0721 36.2145 -0.0979118 44.5945 0.742088C51.5745 1.44209 58.0845 3.5021 63.9945 7.3121C69.9645 11.1621 74.4945 16.2321 76.7545 23.0821C77.3445 24.8721 78.0445 26.7121 77.3245 28.6721C77.2645 28.8321 77.3445 29.0821 77.4445 29.2421C79.3645 32.2221 78.3245 36.4821 74.6445 38.1821C74.4345 38.2821 74.2245 38.6221 74.2145 38.8521C74.1645 39.7321 74.2245 40.6121 74.1845 41.4921C74.1645 42.0321 74.3545 42.2721 74.8345 42.5521C75.7745 43.1121 76.6945 43.7621 77.4845 44.5221C78.6645 45.6321 79.1045 47.1721 79.4545 48.7121ZM39.7045 28.8721C43.1945 28.8721 46.6845 28.8721 50.1745 28.8721C57.5445 28.8721 64.9045 28.8821 72.2745 28.8721C73.8645 28.8721 74.7645 27.8721 74.4645 26.4221C73.7645 23.0921 72.3945 20.052 70.3545 17.322C66.3845 11.982 61.0645 8.48207 54.9045 6.22207C47.5745 3.54207 40.0145 2.90204 32.3145 4.19204C24.9245 5.42204 18.2445 8.24207 12.6645 13.3521C8.79452 16.9021 6.12453 21.1821 5.01453 26.3621C4.71453 27.7721 5.54452 28.8321 6.97452 28.8721C7.20452 28.8821 7.43453 28.8721 7.67453 28.8721C18.3545 28.8721 29.0245 28.8721 39.7045 28.8721ZM73.0445 65.0021C71.5645 64.7021 70.3145 64.4221 69.0645 64.202C68.3645 64.0821 67.6345 63.9821 66.9245 63.9921C65.4945 64.0021 64.4045 64.8321 63.3045 65.6021C61.4445 66.9021 59.3845 67.3521 57.1245 67.0821C55.3845 66.8721 53.9545 66.0421 52.5845 65.0521C51.2245 64.0721 49.6945 63.6621 48.1145 64.1021C47.0545 64.4021 46.0445 65.0021 45.1045 65.6121C43.1745 66.8721 41.1245 67.362 38.8445 67.072C37.1045 66.852 35.6845 66.0021 34.3145 65.0221C33.0245 64.1021 31.6145 63.8121 30.0545 64.0321C28.7845 64.2021 27.8245 64.942 26.8245 65.632C24.5745 67.182 22.0845 67.6021 19.5145 66.8121C18.2645 66.4321 17.1145 65.642 15.9845 64.942C14.4645 63.992 12.8845 63.6621 11.1845 64.2321C9.68454 64.7321 8.18452 64.9621 6.69452 64.5821C6.69452 66.3021 6.52452 68.022 6.75452 69.692C6.90452 70.782 7.48452 71.9121 8.13452 72.8321C9.73452 75.0821 12.0545 75.9921 14.7845 75.9821C26.8045 75.9721 38.8345 75.9721 50.8545 75.9721C55.5345 75.9721 60.2145 75.9921 64.8945 75.9721C68.7945 75.9521 71.7745 73.7921 72.6745 70.0421C73.0645 68.3521 72.9345 66.5521 73.0445 65.0021ZM75.1445 31.6221C73.8445 31.7421 72.6545 31.9621 71.4645 31.9621C51.1645 31.9821 30.8645 31.9821 10.5645 31.9721C8.73451 31.9721 6.91454 31.9121 5.02454 31.8921C4.83454 32.6321 4.96452 33.4321 5.47452 34.1721C6.30452 35.3821 7.82453 35.8421 9.39453 35.4921C10.6145 35.2121 11.8645 34.9321 13.1145 34.8621C15.1745 34.7621 16.9045 35.7221 18.5145 36.9121C19.6945 37.7821 21.0045 38.1121 22.4545 37.9921C23.5445 37.9021 24.4945 37.472 25.3545 36.822C27.3345 35.322 29.5245 34.6121 32.0245 34.8721C33.8245 35.0621 35.3245 35.8721 36.7245 36.9021C38.0045 37.8421 39.4245 38.1521 40.9745 37.9621C42.2045 37.8121 43.1845 37.132 44.1545 36.442C45.9145 35.182 47.8545 34.7121 50.0045 34.8521C51.9545 34.9821 53.5445 35.8921 55.0745 36.9821C56.6945 38.1321 58.4745 38.3421 60.3045 37.6621C61.0845 37.3721 61.7845 36.8321 62.4945 36.3621C64.9145 34.7421 67.4945 34.4021 70.2545 35.3121C70.6445 35.4421 71.0545 35.5721 71.4545 35.6121C72.7245 35.7321 73.8145 35.3421 74.6145 34.3321C75.3045 33.4621 75.4845 32.4821 75.1445 31.6221ZM5.23453 57.4021C4.54453 58.8021 5.24452 60.5621 6.75452 61.2921C7.80452 61.8021 8.85452 61.7021 9.91452 61.3521C12.8445 60.3821 15.5545 60.8021 18.0645 62.6221C18.6645 63.0621 19.3145 63.4921 20.0045 63.7221C21.7945 64.3321 23.4845 64.0821 25.1045 63.0521C26.2245 62.3321 27.3845 61.572 28.6345 61.192C31.2145 60.402 33.6845 60.8521 35.9445 62.3921C36.6645 62.8821 37.3945 63.4221 38.2045 63.7221C39.9745 64.3621 41.6845 64.102 43.3145 63.072C44.4645 62.352 45.6445 61.5721 46.9145 61.1821C49.7745 60.3221 52.3845 61.0621 54.7945 62.8021C57.2045 64.5421 59.4745 64.5521 61.8745 62.7921C64.6045 60.8121 67.4845 60.352 70.6545 61.442C71.2445 61.642 71.9345 61.6721 72.5545 61.5821C74.6945 61.2721 75.8645 59.0021 74.8445 57.1021C73.0845 57.9221 71.1945 57.822 69.3145 57.822C62.1545 57.822 54.9945 57.822 47.8345 57.822C46.6945 57.822 45.4345 57.532 44.4645 57.942C43.4645 58.352 42.7545 59.4621 41.9145 60.2721C41.8745 60.3021 41.8445 60.342 41.8045 60.382C40.7845 61.382 40.0145 61.3921 39.0045 60.4021C38.3745 59.7921 37.7145 59.1921 37.1545 58.5321C36.6645 57.9621 36.1145 57.822 35.3945 57.822C28.4645 57.852 21.5345 57.872 14.6145 57.822C11.4945 57.762 8.33453 58.1321 5.23453 57.4021ZM47.6345 54.4121C47.6845 54.4921 47.7245 54.5721 47.7745 54.6521C47.8745 54.6721 47.9645 54.692 48.0645 54.692C55.8745 54.692 63.6845 54.7021 71.4945 54.6821C73.0545 54.6821 74.3845 54.1021 75.3245 52.8321C76.5345 51.1921 76.7045 49.3821 75.8445 47.5621C74.9445 45.6521 73.2945 44.8721 71.2445 44.8621C66.8445 44.8521 62.4545 44.852 58.0545 44.882C57.6945 44.882 57.2545 45.0821 56.9945 45.3421C54.0345 48.2321 51.1045 51.1521 48.1645 54.0621C48.0145 54.2221 47.8145 54.3021 47.6345 54.4121ZM33.1145 54.6721C31.2345 52.7721 29.3945 50.9021 27.4845 48.9821C26.1945 50.2721 24.8945 51.5921 23.5745 52.9121C22.3845 54.1021 21.6845 54.1021 20.5045 52.9221C17.9845 50.4021 15.4645 47.8721 12.9245 45.3721C12.6645 45.1221 12.2245 44.9221 11.8645 44.9121C10.6045 44.8521 9.33451 44.8621 8.06451 44.8921C4.67451 44.9921 2.51454 47.7421 3.24454 50.9821C3.76454 53.3221 5.65454 54.7121 8.34454 54.7121C16.3645 54.7221 24.3745 54.7221 32.3945 54.7121C32.6445 54.7021 32.8945 54.6821 33.1145 54.6721ZM52.6945 44.9121C44.5445 44.9121 36.3445 44.9121 28.2545 44.9121C32.3245 48.9821 36.4445 53.0921 40.6545 57.3021C44.6245 53.2221 48.6745 49.0621 52.6945 44.9121ZM71.0945 41.7421C71.0945 40.8021 71.1045 39.9521 71.0845 39.1021C71.0845 38.9521 70.9645 38.712 70.8545 38.692C69.5745 38.432 68.2945 38.1121 66.9945 38.0021C65.5945 37.8821 64.5045 38.7321 63.4245 39.5021C61.7645 40.6921 59.9245 41.222 57.8845 41.132C56.1745 41.062 54.6645 40.4821 53.2745 39.5221C52.2945 38.8421 51.3345 38.1521 50.0945 38.0021C48.4445 37.8021 46.9745 38.1721 45.6545 39.1821C43.8445 40.5621 41.8245 41.262 39.5145 41.132C37.5445 41.022 35.8945 40.1821 34.3545 39.0521C33.1745 38.1821 31.8745 37.8821 30.4145 37.9721C28.9545 38.0621 27.8645 38.8821 26.7345 39.6421C24.8045 40.9621 22.6745 41.342 20.3845 41.012C18.7645 40.782 17.4145 39.9921 16.1445 39.0521C14.8345 38.0821 13.3845 37.7621 11.8145 38.0321C10.6645 38.2321 9.53452 38.602 8.41452 38.882C8.41452 39.842 8.41452 40.7821 8.41452 41.7421C29.3245 41.7421 50.1545 41.7421 71.0945 41.7421ZM17.0645 44.8721C18.7845 46.5921 20.4445 48.2421 21.9945 49.7921C23.0345 48.7721 24.1245 47.6821 25.2745 46.5421C24.8145 46.1021 24.2945 45.5921 23.7545 45.1121C23.6145 44.9821 23.3945 44.8821 23.2145 44.8721C21.1745 44.8721 19.1445 44.8721 17.0645 44.8721Z" fill="black"/>
<path fill-rule="evenodd" clip-rule="evenodd" d="M39.7045 28.872C29.0245 28.872 18.3545 28.872 7.67453 28.872C7.44453 28.872 7.21452 28.882 6.97452 28.872C5.54452 28.832 4.70453 27.772 5.01453 26.362C6.12453 21.182 8.79452 16.902 12.6645 13.352C18.2445 8.24203 24.9245 5.42199 32.3145 4.19199C40.0145 2.90199 47.5745 3.54202 54.9045 6.22202C61.0645 8.48202 66.3845 11.982 70.3545 17.322C72.3845 20.052 73.7645 23.092 74.4645 26.422C74.7645 27.872 73.8745 28.872 72.2745 28.872C64.9045 28.882 57.5445 28.872 50.1745 28.872C46.6845 28.872 43.1945 28.872 39.7045 28.872ZM46.2945 7.30204C45.2145 7.32204 44.5545 7.882 44.4445 8.642C44.3445 9.35201 44.7945 10.092 45.5545 10.292C46.4245 10.522 47.3245 10.632 48.2045 10.852C56.4645 12.912 63.4945 16.662 67.3745 24.762C67.6445 25.322 68.1245 25.602 68.7545 25.592C69.9545 25.572 70.5845 24.452 70.0545 23.232C68.8945 20.572 67.2045 18.262 65.1345 16.242C60.8345 12.072 55.6445 9.53204 49.8845 8.05204C48.6145 7.74204 47.3145 7.52204 46.2945 7.30204ZM45.0145 22.472C45.0045 21.622 44.3145 20.942 43.4745 20.962C42.6545 20.972 41.9545 21.682 41.9645 22.522C41.9645 23.342 42.7045 24.052 43.5245 24.042C44.3445 24.022 45.0345 23.312 45.0145 22.472ZM40.5045 7.87205C40.5145 7.04205 39.8245 6.34201 38.9845 6.33201C38.1445 6.32201 37.4345 7.01202 37.4345 7.84202C37.4345 8.67202 38.1345 9.382 38.9645 9.392C39.7845 9.40201 40.4845 8.70205 40.5045 7.87205ZM24.4545 14.112C23.6145 14.132 22.9645 14.812 22.9645 15.662C22.9645 16.482 23.6645 17.192 24.4845 17.192C25.3145 17.192 26.0645 16.422 26.0245 15.592C25.9945 14.762 25.2845 14.092 24.4545 14.112ZM38.0345 15.632C38.0245 14.792 37.3445 14.122 36.5045 14.112C35.6545 14.102 34.9245 14.862 34.9545 15.702C34.9845 16.502 35.7345 17.212 36.5345 17.192C37.3545 17.172 38.0445 16.452 38.0345 15.632ZM15.5045 21.462C15.5145 22.312 16.1945 22.972 17.0445 22.962C17.8745 22.942 18.5545 22.242 18.5345 21.392C18.5145 20.532 17.8345 19.872 16.9845 19.882C16.1445 19.902 15.4945 20.592 15.5045 21.462ZM31.0145 21.412C31.0045 22.272 31.6545 22.942 32.5145 22.952C33.3545 22.962 34.0445 22.282 34.0545 21.432C34.0645 20.582 33.3945 19.892 32.5445 19.882C31.6945 19.872 31.0245 20.542 31.0145 21.412Z" fill="white"/>
<path fill-rule="evenodd" clip-rule="evenodd" d="M73.0445 65.0021C72.9445 66.5621 73.0645 68.362 72.6645 70.032C71.7545 73.782 68.7845 75.952 64.8845 75.962C60.2045 75.982 55.5245 75.962 50.8445 75.962C38.8145 75.962 26.7945 75.962 14.7745 75.972C12.0445 75.972 9.72454 75.062 8.12454 72.822C7.47454 71.902 6.89454 70.7721 6.74454 69.6821C6.51454 68.0121 6.68454 66.292 6.68454 64.572C8.17454 64.952 9.67453 64.722 11.1745 64.222C12.8845 63.652 14.4545 63.9821 15.9745 64.9321C17.1045 65.6421 18.2545 66.4221 19.5045 66.8021C22.0745 67.5921 24.5645 67.1621 26.8145 65.6221C27.8145 64.9321 28.7745 64.202 30.0445 64.022C31.6045 63.802 33.0145 64.092 34.3045 65.012C35.6745 65.992 37.1045 66.8421 38.8345 67.0621C41.1145 67.3521 43.1745 66.862 45.0945 65.602C46.0345 64.992 47.0445 64.392 48.1045 64.092C49.6945 63.652 51.2245 64.062 52.5745 65.042C53.9445 66.032 55.3745 66.862 57.1145 67.072C59.3745 67.342 61.4245 66.902 63.2945 65.592C64.4045 64.822 65.4945 63.992 66.9145 63.982C67.6245 63.972 68.3445 64.072 69.0545 64.192C70.3145 64.422 71.5645 64.6921 73.0445 65.0021Z" fill="white"/>
<path fill-rule="evenodd" clip-rule="evenodd" d="M46.2945 7.30206C47.3145 7.52206 48.6145 7.74202 49.8845 8.07202C55.6445 9.54202 60.8345 12.082 65.1345 16.262C67.2145 18.282 68.8945 20.5921 70.0545 23.2521C70.5845 24.4621 69.9545 25.5821 68.7545 25.6121C68.1245 25.6221 67.6445 25.342 67.3745 24.782C63.4945 16.682 56.4645 12.9321 48.2045 10.8721C47.3245 10.6521 46.4245 10.5421 45.5545 10.3121C44.7945 10.1121 44.3445 9.37205 44.4445 8.66205C44.5545 7.88205 45.2145 7.32206 46.2945 7.30206Z" fill="black"/>
<path fill-rule="evenodd" clip-rule="evenodd" d="M45.0145 22.472C45.0245 23.312 44.3445 24.022 43.5145 24.032C42.6945 24.042 41.9645 23.332 41.9545 22.512C41.9545 21.672 42.6445 20.962 43.4645 20.952C44.3245 20.942 45.0045 21.622 45.0145 22.472Z" fill="black"/>
<path fill-rule="evenodd" clip-rule="evenodd" d="M40.5045 7.87207C40.4945 8.71207 39.7845 9.40203 38.9545 9.39203C38.1245 9.38203 37.4245 8.67204 37.4245 7.84204C37.4245 7.02204 38.1345 6.33203 38.9745 6.33203C39.8245 6.34203 40.5145 7.04207 40.5045 7.87207Z" fill="black"/>
<path fill-rule="evenodd" clip-rule="evenodd" d="M24.4545 14.1121C25.2745 14.0921 25.9945 14.7621 26.0245 15.5921C26.0645 16.4221 25.3145 17.192 24.4845 17.192C23.6645 17.192 22.9645 16.4821 22.9645 15.6621C22.9645 14.8121 23.6145 14.1321 24.4545 14.1121Z" fill="black"/>
<path fill-rule="evenodd" clip-rule="evenodd" d="M38.0345 15.632C38.0445 16.452 37.3545 17.172 36.5345 17.202C35.7345 17.222 34.9845 16.512 34.9545 15.712C34.9245 14.872 35.6545 14.112 36.5045 14.122C37.3445 14.122 38.0145 14.792 38.0345 15.632Z" fill="black"/>
<path fill-rule="evenodd" clip-rule="evenodd" d="M15.5045 21.462C15.4945 20.592 16.1445 19.912 16.9845 19.882C17.8245 19.862 18.5145 20.532 18.5345 21.392C18.5545 22.232 17.8845 22.942 17.0445 22.962C16.1945 22.972 15.5145 22.302 15.5045 21.462Z" fill="black"/>
<path fill-rule="evenodd" clip-rule="evenodd" d="M31.0145 21.412C31.0245 20.542 31.7045 19.872 32.5445 19.882C33.3945 19.902 34.0545 20.5821 34.0545 21.4321C34.0445 22.2821 33.3545 22.962 32.5145 22.952C31.6545 22.942 30.9945 22.272 31.0145 21.412Z" fill="black"/>
</svg>
