<svg width="107" height="82" viewBox="0 0 107 82" fill="none" xmlns="http://www.w3.org/2000/svg">
<path d="M21.26 2.66968C19.16 1.41968 16.5 0.799805 13.27 0.799805C10.89 0.799805 8.79 1.19977 6.96 2.00977C5.13 2.81977 3.7 3.91983 2.67 5.32983C1.64 6.72983 1.02 8.18972 0.810001 9.70972C0.600001 11.2297 0.5 13.5098 0.5 16.5398V28.8499C0.5 32.9799 0.839998 36.0699 1.51 38.1199C2.19 40.1799 3.56 41.7897 5.64 42.9497C7.72 44.1097 10.37 44.6897 13.57 44.6897C16.66 44.6897 19.25 44.0096 21.36 42.6296C23.47 41.2596 24.83 39.6598 25.45 37.8298C26.06 35.9998 26.37 32.9098 26.37 28.5598V26.9197H15.43V32.2097C15.43 34.5197 15.3 35.9899 15.05 36.6199C14.8 37.2499 14.27 37.5598 13.45 37.5598C12.6 37.5598 12.06 37.2499 11.81 36.6199C11.57 35.9999 11.45 34.6599 11.45 32.6099V13.0498C11.45 10.9198 11.57 9.52965 11.81 8.88965C12.06 8.24965 12.63 7.92969 13.53 7.92969C14.33 7.92969 14.84 8.18973 15.08 8.71973C15.31 9.24973 15.43 10.5797 15.43 12.7097V20.0298H26.38V16.0298C26.38 12.0998 26.05 9.19984 25.39 7.33984C24.73 5.46984 23.35 3.91968 21.26 2.66968Z" fill="#FFF200"/>
<path d="M52.91 5.21973C51.82 3.74973 50.37 2.63966 48.58 1.89966C46.78 1.15966 44.76 0.799805 42.5 0.799805C40.12 0.799805 38.04 1.18973 36.26 1.96973C34.47 2.74973 33.06 3.86983 32.01 5.32983C30.96 6.78983 30.34 8.39967 30.14 10.1597C29.94 11.9197 29.84 14.9097 29.84 19.1497V26.3599C29.84 30.6899 29.94 33.7297 30.16 35.4597C30.37 37.1997 31.02 38.7998 32.11 40.2698C33.2 41.7398 34.64 42.8498 36.44 43.5898C38.23 44.3298 40.26 44.6897 42.51 44.6897C44.89 44.6897 46.97 44.2998 48.75 43.5198C50.54 42.7398 51.95 41.6197 53 40.1597C54.05 38.7097 54.67 37.0998 54.88 35.3398C55.08 33.5798 55.18 30.5799 55.18 26.3499V19.1396C55.18 14.7996 55.08 11.7698 54.87 10.0398C54.65 8.2998 54 6.69973 52.91 5.21973ZM42.08 37.5598H36.92L42.96 7.96973H48.08L42.08 37.5598Z" fill="#FFF200"/>
<path d="M81.69 4.80957C80.72 3.69957 79.3 2.89943 77.43 2.41943C75.57 1.93943 71.99 1.68945 66.7 1.68945H58.51V43.7996H72.33C74.95 43.7996 76.91 43.6596 78.21 43.3696C79.51 43.0896 80.6 42.5796 81.49 41.8596C82.37 41.1396 82.99 40.1396 83.35 38.8696C83.7 37.5996 83.88 35.0695 83.88 31.2896V16.5396C83.88 12.5496 83.76 9.87953 83.52 8.51953C83.27 7.14953 82.66 5.91957 81.69 4.80957ZM71.23 37.5596H66.06L71.17 22.7795L66.06 7.89941H71.2L76.33 22.7395L71.23 37.5596Z" fill="#FFF200"/>
<path d="M98.22 35.3794V26.1096H105.06V18.0996H98.22V10.1096H105.53V1.68945H87.27V43.7996H106.26V35.3794H98.22Z" fill="#FFF200"/>
<path d="M12.14 63.9905V63.9004C14.35 62.8604 15.34 60.8306 15.34 57.5806V56.4504C15.34 51.5804 13.13 49.1904 7.98 49.1904H0.5V80.7805H8.31C13.27 80.7805 15.84 78.1605 15.84 73.2905V70.7205C15.84 67.3705 14.8 65.0305 12.14 63.9905ZM5.46 53.7004H7.85C9.61 53.7004 10.38 54.6904 10.38 56.9504V58.7104C10.38 61.2404 9.25 62.0505 7.4 62.0505H5.46V53.7004ZM10.88 73.1504C10.88 75.5004 9.97 76.2605 8.31 76.2605H5.47V66.5605H7.68C9.93 66.5605 10.88 67.4604 10.88 70.4004V73.1504Z" fill="#FFF200"/>
<path d="M29.15 73.5605C29.15 75.8205 28.15 76.6304 26.57 76.6304C24.99 76.6304 24 75.8205 24 73.5605V49.1904H19.03V73.2505C19.03 78.3005 21.56 81.1904 26.43 81.1904C31.31 81.1904 33.83 78.3005 33.83 73.2505V49.1904H29.14V73.5605H29.15Z" fill="#FFF200"/>
<path d="M52.57 72.0703C52.57 68.7803 51.76 66.4301 49.28 65.3901V65.3003C51.49 64.2603 52.53 62.1902 52.53 58.9402V56.4602C52.53 51.5902 50.32 49.2002 45.17 49.2002H37.68V80.7903H42.64V67.9302H44.36C46.62 67.9302 47.61 69.0102 47.61 71.9402V76.9102C47.61 79.4802 47.79 79.9803 48.06 80.7903H53.12C52.62 79.6203 52.58 78.4902 52.58 76.9502V72.0703H52.57ZM47.56 60.0603C47.56 62.5903 46.44 63.4001 44.58 63.4001H42.64V53.7002H45.03C46.79 53.7002 47.55 54.6902 47.55 56.9502V60.0603H47.56Z" fill="#FFF200"/>
<path d="M63.26 48.8203C58.38 48.8203 55.86 51.7103 55.86 56.7603V73.1902C55.86 78.2502 58.39 81.1301 63.26 81.1301C68.13 81.1301 70.66 78.2402 70.66 73.1902V63.1702H63.71V67.6802H65.97V73.5002C65.97 75.7602 64.98 76.5703 63.4 76.5703C61.82 76.5703 60.83 75.7602 60.83 73.5002V56.4402C60.83 54.1902 61.82 53.3303 63.4 53.3303C64.98 53.3303 65.97 54.1902 65.97 56.4402V59.8303H70.66V56.7603C70.67 51.7103 68.14 48.8203 63.26 48.8203Z" fill="#FFF200"/>
<path d="M74.32 80.7798H87.86V76.2598H79.28V67.0098H86.1V62.4998H79.28V53.6997H87.86V49.1797H74.32V80.7798Z" fill="#FFF200"/>
<path d="M102.97 65.3901V65.3003C105.18 64.2603 106.22 62.1902 106.22 58.9402V56.4602C106.22 51.5902 104.01 49.2002 98.86 49.2002H91.37V80.7903H96.33V67.9302H98.05C100.31 67.9302 101.3 69.0102 101.3 71.9402V76.9102C101.3 79.4802 101.48 79.9803 101.75 80.7903H106.22V70.8303C106.02 68.1803 105.13 66.2901 102.97 65.3901ZM101.26 60.0603C101.26 62.5903 100.13 63.4001 98.28 63.4001H96.34V53.7002H98.74C100.5 53.7002 101.27 54.6902 101.27 56.9502V60.0603H101.26Z" fill="#FFF200"/>
</svg>
