<svg width="232" height="176" viewBox="0 0 232 176" fill="none" xmlns="http://www.w3.org/2000/svg">
<path d="M45.7146 4.19206C41.1346 1.47206 35.3446 0.112061 28.3046 0.112061C23.1245 0.112061 18.5445 0.992062 14.5546 2.74206C10.5646 4.50206 7.45455 6.91206 5.20455 9.97206C2.95455 13.0321 1.60455 16.2121 1.14455 19.5221C0.694554 22.8321 0.474548 27.8021 0.474548 34.4121V61.2421C0.474548 70.2321 1.20456 76.9721 2.68456 81.4621C4.15456 85.9421 7.16455 89.4521 11.6945 91.9821C16.2345 94.5121 21.9946 95.7821 28.9946 95.7821C35.7246 95.7821 41.3846 94.2921 45.9846 91.3021C50.5746 88.3021 53.5446 84.8221 54.8946 80.8521C56.2346 76.8721 56.9045 70.1421 56.9045 60.6321V57.0521H33.0046V68.5921C33.0046 73.6321 32.7246 76.8321 32.1846 78.2021C31.6346 79.5621 30.4746 80.2521 28.6945 80.2521C26.8445 80.2521 25.6546 79.5721 25.1245 78.2121C24.5945 76.8521 24.3345 73.9421 24.3345 69.4821V26.8221C24.3345 22.1721 24.5845 19.1521 25.1245 17.7521C25.6546 16.3521 26.9046 15.6521 28.8646 15.6521C30.6046 15.6521 31.7246 16.2321 32.2446 17.3721C32.7546 18.5221 33.0046 21.4221 33.0046 26.0621V42.0221H56.8745V33.2921C56.8745 24.7221 56.1545 18.4121 54.7145 14.3521C53.2945 10.3021 50.2846 6.91206 45.7146 4.19206Z" fill="#FFF200"/>
<path d="M114.705 9.76207C112.315 6.55207 109.175 4.13207 105.255 2.53207C101.345 0.93207 96.9345 0.12207 92.0145 0.12207C86.8345 0.12207 82.3045 0.97207 78.4045 2.67207C74.5045 4.37207 71.4245 6.81207 69.1345 9.99207C66.8445 13.1721 65.4846 16.6721 65.0546 20.5121C64.6246 24.3521 64.4045 30.8721 64.4045 40.1021V55.8221C64.4045 65.2721 64.6245 71.8821 65.0945 75.6621C65.5445 79.4521 66.9645 82.9421 69.3445 86.1521C71.7245 89.3621 74.8645 91.7821 78.7845 93.3821C82.6945 94.9821 87.1146 95.7921 92.0246 95.7921C97.2046 95.7921 101.745 94.9421 105.635 93.2421C109.525 91.5321 112.615 89.1021 114.905 85.9221C117.195 82.7521 118.555 79.2421 118.995 75.4121C119.435 71.5721 119.645 65.0421 119.645 55.8221V40.0921C119.645 30.6421 119.415 24.0221 118.975 20.2521C118.495 16.4721 117.075 12.9721 114.705 9.76207ZM91.1045 80.2421H79.8545L93.0246 15.7421H104.185L91.1045 80.2421Z" fill="#FFF200"/>
<path d="M177.455 8.84211C175.335 6.43211 172.245 4.68212 168.175 3.62212C164.105 2.56212 156.315 2.04211 144.785 2.04211H126.925V93.8421H157.045C162.755 93.8421 167.025 93.5321 169.855 92.9121C172.695 92.2921 175.075 91.1921 177.005 89.6221C178.925 88.0521 180.285 85.8721 181.065 83.1021C181.835 80.3221 182.225 74.8121 182.225 66.5721V34.4221C182.225 25.7321 181.965 19.9021 181.435 16.9321C180.885 13.9621 179.565 11.2721 177.455 8.84211ZM154.655 80.2421H143.375L154.515 48.0221L143.375 15.5921H154.575L165.755 47.9321L154.655 80.2421Z" fill="#FFF200"/>
<path d="M213.485 75.4821V55.2921H228.395V37.8321H213.485V20.4121H229.425V2.04211H189.615V93.8521H231.005V75.4821H213.485Z" fill="#FFF200"/>
<path d="M25.8445 137.852V137.652C30.6645 135.392 32.8345 130.962 32.8345 123.882V121.422C32.8345 110.802 28.0145 105.582 16.7945 105.582H0.464539V174.452H17.4845C28.3045 174.452 33.9045 168.742 33.9045 158.122V152.512C33.9045 145.232 31.6445 140.122 25.8445 137.852ZM11.2845 115.422H16.5045C20.3445 115.422 22.0145 117.592 22.0145 122.512V126.342C22.0145 131.852 19.5545 133.622 15.5145 133.622H11.2845V115.422ZM23.0945 157.832C23.0945 162.952 21.1245 164.622 17.4845 164.622H11.2845V143.472H16.1045C21.0145 143.472 23.0845 145.442 23.0845 151.832V157.832H23.0945Z" fill="#FFF200"/>
<path d="M62.9345 158.712C62.9345 163.632 60.7645 165.402 57.3245 165.402C53.8845 165.402 51.7145 163.632 51.7145 158.712V105.582H40.8945V158.022C40.8945 169.042 46.4145 175.332 57.0345 175.332C67.6645 175.332 73.1645 169.032 73.1645 158.022V105.582H62.9445V158.712H62.9345Z" fill="#FFF200"/>
<path d="M113.975 155.462C113.975 148.282 112.205 143.162 106.795 140.902V140.702C111.615 138.442 113.875 133.912 113.875 126.832V121.412C113.875 110.792 109.055 105.572 97.8345 105.572H81.5045V174.442H92.3245V146.402H96.0645C100.995 146.402 103.155 148.762 103.155 155.152V165.982C103.155 171.592 103.555 172.672 104.135 174.442H115.155C114.075 171.882 113.975 169.422 113.975 166.072V155.462ZM103.055 129.292C103.055 134.802 100.605 136.572 96.5645 136.572H92.3345V115.422H97.5546C101.395 115.422 103.055 117.592 103.055 122.512V129.292Z" fill="#FFF200"/>
<path d="M137.285 104.802C126.655 104.802 121.145 111.102 121.145 122.112V157.922C121.145 168.942 126.645 175.232 137.285 175.232C147.905 175.232 153.415 168.942 153.415 157.922V136.082H138.265V145.912H143.185V158.602C143.185 163.522 141.015 165.292 137.575 165.292C134.135 165.292 131.965 163.522 131.965 158.602V121.412C131.965 116.502 134.125 114.632 137.575 114.632C141.025 114.632 143.185 116.502 143.185 121.412V128.792H153.415V122.102C153.425 111.092 147.905 104.802 137.285 104.802Z" fill="#FFF200"/>
<path d="M161.375 174.462H190.895V164.612H172.195V144.452H187.055V134.612H172.195V115.422H190.895V105.582H161.375V174.462Z" fill="#FFF200"/>
<path d="M223.845 140.902V140.702C228.665 138.442 230.925 133.912 230.925 126.832V121.412C230.925 110.792 226.115 105.572 214.885 105.572H198.555V174.442H209.375V146.402H213.115C218.035 146.402 220.205 148.762 220.205 155.152V165.982C220.205 171.592 220.605 172.672 221.185 174.442H230.925V152.732C230.485 146.992 228.545 142.872 223.845 140.902ZM220.105 129.292C220.105 134.802 217.645 136.572 213.615 136.572H209.375V115.422H214.595C218.425 115.422 220.105 117.592 220.105 122.512V129.292Z" fill="#FFF200"/>
</svg>
