<svg width="293" height="206" viewBox="0 0 293 206" fill="none" xmlns="http://www.w3.org/2000/svg">
<path d="M292.625 0.362061H0.92453V205.072H292.625V0.362061Z" fill="#231F20"/>
<path d="M76.7146 5.19206C72.1346 2.47206 66.3446 1.11206 59.3046 1.11206C54.1245 1.11206 49.5445 1.99206 45.5546 3.74206C41.5646 5.50206 38.4546 7.91206 36.2046 10.9721C33.9546 14.0321 32.6046 17.2121 32.1446 20.5221C31.6946 23.8321 31.4745 28.8021 31.4745 35.4121V62.2421C31.4745 71.2321 32.2046 77.9721 33.6846 82.4621C35.1546 86.9421 38.1645 90.4521 42.6945 92.9821C47.2345 95.5121 52.9946 96.7821 59.9946 96.7821C66.7246 96.7821 72.3846 95.2921 76.9846 92.3021C81.5746 89.3021 84.5446 85.8221 85.8946 81.8521C87.2346 77.8721 87.9045 71.1421 87.9045 61.6321V58.0521H64.0046V69.5921C64.0046 74.6321 63.7246 77.8321 63.1846 79.2021C62.6346 80.5621 61.4746 81.2521 59.6945 81.2521C57.8445 81.2521 56.6546 80.5721 56.1245 79.2121C55.5945 77.8521 55.3345 74.9421 55.3345 70.4821V27.8221C55.3345 23.1721 55.5845 20.1521 56.1245 18.7521C56.6546 17.3521 57.9046 16.6521 59.8646 16.6521C61.6046 16.6521 62.7246 17.2321 63.2446 18.3721C63.7546 19.5221 64.0046 22.4221 64.0046 27.0621V43.0221H87.8745V34.2921C87.8745 25.7221 87.1545 19.4121 85.7145 15.3521C84.2945 11.3021 81.2846 7.91206 76.7146 5.19206Z" fill="#FFF200"/>
<path d="M145.705 10.7621C143.315 7.55207 140.175 5.13207 136.255 3.53207C132.345 1.93207 127.935 1.12207 123.015 1.12207C117.835 1.12207 113.305 1.97207 109.405 3.67207C105.505 5.37207 102.425 7.81207 100.135 10.9921C97.8445 14.1721 96.4846 17.6721 96.0546 21.5121C95.6246 25.3521 95.4045 31.8721 95.4045 41.1021V56.8221C95.4045 66.2721 95.6245 72.8821 96.0945 76.6621C96.5445 80.4521 97.9645 83.9421 100.345 87.1521C102.725 90.3621 105.865 92.7821 109.785 94.3821C113.695 95.9821 118.115 96.7921 123.025 96.7921C128.205 96.7921 132.745 95.9421 136.635 94.2421C140.525 92.5321 143.615 90.1021 145.905 86.9221C148.195 83.7521 149.555 80.2421 149.995 76.4121C150.435 72.5721 150.645 66.0421 150.645 56.8221V41.0921C150.645 31.6421 150.415 25.0221 149.975 21.2521C149.495 17.4721 148.075 13.9721 145.705 10.7621ZM122.105 81.2421H110.855L124.025 16.7421H135.185L122.105 81.2421Z" fill="#FFF200"/>
<path d="M208.455 9.84211C206.335 7.43211 203.245 5.68212 199.175 4.62212C195.105 3.56212 187.315 3.04211 175.785 3.04211H157.925V94.8421H188.045C193.755 94.8421 198.025 94.5321 200.855 93.9121C203.695 93.2921 206.075 92.1921 208.005 90.6221C209.925 89.0521 211.285 86.8721 212.065 84.1021C212.835 81.3221 213.225 75.8121 213.225 67.5721V35.4221C213.225 26.7321 212.965 20.9021 212.435 17.9321C211.885 14.9621 210.565 12.2721 208.455 9.84211ZM185.655 81.2421H174.375L185.515 49.0221L174.375 16.5921H185.575L196.755 48.9321L185.655 81.2421Z" fill="#FFF200"/>
<path d="M244.485 76.4821V56.2921H259.395V38.8321H244.485V21.4121H260.425V3.04211H220.615V94.8521H262.005V76.4821H244.485Z" fill="#FFF200"/>
<path d="M56.8445 138.852V138.652C61.6645 136.392 63.8345 131.962 63.8345 124.882V122.422C63.8345 111.802 59.0145 106.582 47.7945 106.582H31.4645V175.452H48.4845C59.3045 175.452 64.9045 169.742 64.9045 159.122V153.512C64.9045 146.232 62.6445 141.122 56.8445 138.852ZM42.2845 116.422H47.5045C51.3445 116.422 53.0145 118.592 53.0145 123.512V127.342C53.0145 132.852 50.5545 134.622 46.5145 134.622H42.2845V116.422ZM54.0945 158.832C54.0945 163.952 52.1245 165.622 48.4845 165.622H42.2845V144.472H47.1045C52.0145 144.472 54.0845 146.442 54.0845 152.832V158.832H54.0945Z" fill="#FFF200"/>
<path d="M93.9345 159.712C93.9345 164.632 91.7645 166.402 88.3245 166.402C84.8845 166.402 82.7145 164.632 82.7145 159.712V106.582H71.8945V159.022C71.8945 170.042 77.4145 176.332 88.0345 176.332C98.6645 176.332 104.165 170.032 104.165 159.022V106.582H93.9445V159.712H93.9345Z" fill="#FFF200"/>
<path d="M144.975 156.462C144.975 149.282 143.205 144.162 137.795 141.902V141.702C142.615 139.442 144.875 134.912 144.875 127.832V122.412C144.875 111.792 140.055 106.572 128.835 106.572H112.505V175.442H123.325V147.402H127.065C131.995 147.402 134.155 149.762 134.155 156.152V166.982C134.155 172.592 134.555 173.672 135.135 175.442H146.155C145.075 172.882 144.975 170.422 144.975 167.072V156.462ZM134.055 130.292C134.055 135.802 131.605 137.572 127.565 137.572H123.335V116.422H128.555C132.395 116.422 134.055 118.592 134.055 123.512V130.292Z" fill="#FFF200"/>
<path d="M168.285 105.802C157.655 105.802 152.145 112.102 152.145 123.112V158.922C152.145 169.942 157.645 176.232 168.285 176.232C178.905 176.232 184.415 169.942 184.415 158.922V137.082H169.265V146.912H174.185V159.602C174.185 164.522 172.015 166.292 168.575 166.292C165.135 166.292 162.965 164.522 162.965 159.602V122.412C162.965 117.502 165.125 115.632 168.575 115.632C172.025 115.632 174.185 117.502 174.185 122.412V129.792H184.415V123.102C184.425 112.092 178.905 105.802 168.285 105.802Z" fill="#FFF200"/>
<path d="M192.375 175.462H221.895V165.612H203.195V145.452H218.055V135.612H203.195V116.422H221.895V106.582H192.375V175.462Z" fill="#FFF200"/>
<path d="M254.845 141.902V141.702C259.665 139.442 261.925 134.912 261.925 127.832V122.412C261.925 111.792 257.115 106.572 245.885 106.572H229.555V175.442H240.375V147.402H244.115C249.035 147.402 251.205 149.762 251.205 156.152V166.982C251.205 172.592 251.605 173.672 252.185 175.442H261.925V153.732C261.485 147.992 259.545 143.872 254.845 141.902ZM251.105 130.292C251.105 135.802 248.645 137.572 244.615 137.572H240.375V116.422H245.595C249.425 116.422 251.105 118.592 251.105 123.512V130.292Z" fill="#FFF200"/>
</svg>
